<svg fill="#0d141a" viewBox="0 0 119.43900000000001 21.252" height="100%" width="100%" xmlns="http://www.w3.org/2000/svg"><path preserveAspectRatio="none" d="M4.62 16.49L4.62 16.49Q3.08 16.49 1.94 15.93Q0.80 15.36 0 14.35L0 14.35L2.42 12.03Q2.83 12.60 3.39 12.90Q3.96 13.20 4.67 13.20L4.67 13.20Q5.36 13.20 5.87 12.91Q6.37 12.63 6.67 12.09Q6.97 11.55 6.97 10.74L6.97 10.74L6.97 0L10.60 0L10.60 10.53Q10.60 12.35 9.87 13.68Q9.13 15.02 7.80 15.75Q6.46 16.49 4.62 16.49ZM18.54 16.49L18.54 16.49Q16.81 16.49 15.42 15.72Q14.03 14.95 13.23 13.62Q12.42 12.28 12.42 10.63L12.42 10.63Q12.42 8.97 13.23 7.66Q14.03 6.35 15.41 5.58Q16.79 4.81 18.54 4.81L18.54 4.81Q20.29 4.81 21.67 5.57Q23.05 6.32 23.85 7.65Q24.66 8.97 24.66 10.63L24.66 10.63Q24.66 12.28 23.85 13.62Q23.05 14.95 21.67 15.72Q20.29 16.49 18.54 16.49ZM18.54 13.29L18.54 13.29Q19.30 13.29 19.87 12.96Q20.45 12.63 20.76 12.02Q21.07 11.41 21.07 10.63L21.07 10.63Q21.07 9.84 20.75 9.26Q20.42 8.67 19.86 8.34Q19.30 8.00 18.54 8.00L18.54 8.00Q17.80 8.00 17.23 8.34Q16.65 8.67 16.33 9.27Q16.01 9.87 16.01 10.65L16.01 10.65Q16.01 11.41 16.33 12.02Q16.65 12.63 17.23 12.96Q17.80 13.29 18.54 13.29ZM29.92 16.24L26.40 16.24L26.40 5.06L29.92 5.06L29.92 16.24ZM29.92 10.10L29.92 10.10L28.45 8.95Q28.89 6.99 29.92 5.91Q30.96 4.83 32.80 4.83L32.80 4.83Q33.60 4.83 34.21 5.07Q34.82 5.31 35.28 5.82L35.28 5.82L33.19 8.46Q32.96 8.21 32.61 8.07Q32.27 7.94 31.83 7.94L31.83 7.94Q30.96 7.94 30.44 8.48Q29.92 9.02 29.92 10.10ZM40.64 21.25L40.64 21.25Q38.80 21.25 37.41 20.62Q36.02 19.99 35.21 18.84L35.21 18.84L37.37 16.68Q37.97 17.39 38.72 17.76Q39.47 18.12 40.53 18.12L40.53 18.12Q41.84 18.12 42.58 17.48Q43.33 16.84 43.33 15.66L43.33 15.66L43.33 12.81L43.93 10.37L43.40 7.94L43.40 5.06L46.85 5.06L46.85 15.57Q46.85 17.30 46.05 18.56Q45.24 19.83 43.84 20.54Q42.43 21.25 40.64 21.25ZM40.48 15.89L40.48 15.89Q38.94 15.89 37.74 15.16Q36.55 14.42 35.86 13.16Q35.17 11.89 35.17 10.35L35.17 10.35Q35.17 8.79 35.86 7.53Q36.55 6.28 37.74 5.55Q38.94 4.83 40.48 4.83L40.48 4.83Q41.63 4.83 42.54 5.26Q43.45 5.68 44.01 6.45Q44.57 7.22 44.64 8.23L44.64 8.23L44.64 12.49Q44.57 13.48 44.01 14.25Q43.45 15.02 42.53 15.46Q41.61 15.89 40.48 15.89ZM41.15 12.77L41.15 12.77Q41.88 12.77 42.42 12.44Q42.96 12.12 43.25 11.58Q43.54 11.04 43.54 10.35L43.54 10.35Q43.54 9.66 43.25 9.11Q42.96 8.56 42.42 8.23Q41.88 7.91 41.15 7.91L41.15 7.91Q40.43 7.91 39.88 8.23Q39.33 8.56 39.03 9.11Q38.73 9.66 38.73 10.35L38.73 10.35Q38.73 10.99 39.03 11.56Q39.33 12.12 39.87 12.44Q40.41 12.77 41.15 12.77ZM54.85 16.49L54.85 16.49Q53.04 16.49 51.62 15.74Q50.21 15.00 49.40 13.66Q48.60 12.33 48.60 10.65L48.60 10.65Q48.60 8.97 49.39 7.65Q50.19 6.32 51.54 5.57Q52.90 4.81 54.60 4.81L54.60 4.81Q56.26 4.81 57.52 5.52Q58.79 6.23 59.51 7.50Q60.24 8.76 60.24 10.40L60.24 10.40Q60.24 10.70 60.20 11.03Q60.17 11.36 60.08 11.80L60.08 11.80L50.44 11.82L50.44 9.41L58.58 9.38L57.06 10.40Q57.04 9.43 56.76 8.80Q56.49 8.16 55.95 7.83Q55.41 7.50 54.63 7.50L54.63 7.50Q53.80 7.50 53.19 7.88Q52.58 8.26 52.24 8.95Q51.91 9.64 51.91 10.63L51.91 10.63Q51.91 11.61 52.27 12.32Q52.62 13.02 53.28 13.40Q53.93 13.78 54.83 13.78L54.83 13.78Q55.66 13.78 56.33 13.49Q56.99 13.20 57.50 12.63L57.50 12.63L59.43 14.56Q58.60 15.53 57.43 16.01Q56.26 16.49 54.85 16.49ZM70.22 16.24L66.63 16.24L66.63 0L69.21 0L75.60 9.96L74.29 9.96L80.66 0L83.26 0L83.26 16.24L79.65 16.24L79.65 6.09L80.29 6.26L76.13 12.74L73.74 12.74L69.60 6.26L70.22 6.09L70.22 16.24ZM91.01 16.49L91.01 16.49Q89.47 16.49 88.29 15.86Q87.10 15.23 86.43 14.11Q85.77 12.99 85.77 11.55L85.77 11.55L85.77 5.06L89.29 5.06L89.29 11.50Q89.29 12.07 89.48 12.49Q89.68 12.90 90.07 13.13Q90.46 13.36 91.01 13.36L91.01 13.36Q91.79 13.36 92.25 12.87Q92.71 12.37 92.71 11.50L92.71 11.50L92.71 5.06L96.23 5.06L96.23 11.52Q96.23 12.99 95.56 14.11Q94.90 15.23 93.72 15.86Q92.55 16.49 91.01 16.49ZM101.96 16.24L98.44 16.24L98.44 5.06L101.96 5.06L101.96 16.24ZM101.96 10.10L101.96 10.10L100.49 8.95Q100.92 6.99 101.96 5.91Q102.99 4.83 104.83 4.83L104.83 4.83Q105.64 4.83 106.25 5.07Q106.86 5.31 107.32 5.82L107.32 5.82L105.22 8.46Q104.99 8.21 104.65 8.07Q104.30 7.94 103.87 7.94L103.87 7.94Q102.99 7.94 102.48 8.48Q101.96 9.02 101.96 10.10ZM113.32 16.49L113.32 16.49Q111.60 16.49 110.20 15.72Q108.81 14.95 108.01 13.62Q107.20 12.28 107.20 10.63L107.20 10.63Q107.20 8.97 108.01 7.66Q108.81 6.35 110.19 5.58Q111.57 4.81 113.32 4.81L113.32 4.81Q115.07 4.81 116.45 5.57Q117.83 6.32 118.63 7.65Q119.44 8.97 119.44 10.63L119.44 10.63Q119.44 12.28 118.63 13.62Q117.83 14.95 116.45 15.72Q115.07 16.49 113.32 16.49ZM113.32 13.29L113.32 13.29Q114.08 13.29 114.66 12.96Q115.23 12.63 115.54 12.02Q115.85 11.41 115.85 10.63L115.85 10.63Q115.85 9.84 115.53 9.26Q115.21 8.67 114.64 8.34Q114.08 8.00 113.32 8.00L113.32 8.00Q112.59 8.00 112.01 8.34Q111.44 8.67 111.11 9.27Q110.79 9.87 110.79 10.65L110.79 10.65Q110.79 11.41 111.11 12.02Q111.44 12.63 112.01 12.96Q112.59 13.29 113.32 13.29Z"></path></svg>